<?xml version="1.0" encoding="utf-8"?>
<!-- Generator: Adobe Illustrator 21.1.0, SVG Export Plug-In . SVG Version: 6.00 Build 0)  -->
<svg version="1.0" id="Capa_1" xmlns="http://www.w3.org/2000/svg" xmlns:xlink="http://www.w3.org/1999/xlink" x="0px" y="0px"
	 width="1096px" height="780px" viewBox="0 0 1096 780" enable-background="new 0 0 1096 780" xml:space="preserve">
<g>
	<rect x="128.5" y="343.7" width="15.6" height="15.6"/>
	<rect x="144.1" y="343.7" width="15.6" height="15.6"/>
	<rect x="159.7" y="343.7" width="15.6" height="15.6"/>
	<rect x="175.3" y="343.7" width="15.6" height="15.6"/>
	<rect x="191" y="343.7" width="15.6" height="15.6"/>
	<rect x="206.6" y="343.7" width="15.6" height="15.6"/>
	<rect x="222.2" y="343.7" width="15.6" height="15.6"/>
	<rect x="237.8" y="343.7" width="15.6" height="15.6"/>
	<rect x="253.4" y="343.7" width="15.6" height="15.6"/>
	<rect x="128.5" y="328.1" width="15.6" height="15.6"/>
	<rect x="128.5" y="312.5" width="15.6" height="15.6"/>
	<rect x="112.9" y="296.8" width="15.6" height="15.6"/>
	<rect x="112.9" y="281.2" width="15.6" height="15.6"/>
	<rect x="97.3" y="265.6" width="15.6" height="15.6"/>
	<rect x="97.3" y="250" width="15.6" height="15.6"/>
	<rect x="81.6" y="234.4" width="15.6" height="15.6"/>
	<rect x="81.6" y="218.8" width="15.6" height="15.6"/>
	<rect x="66" y="203.2" width="15.6" height="15.6"/>
	<rect x="50.4" y="187.5" width="15.6" height="15.6"/>
	<rect x="50.4" y="171.9" width="15.6" height="15.6"/>
	<rect x="50.4" y="156.3" width="15.6" height="15.6"/>
	<rect x="66" y="156.3" width="15.6" height="15.6"/>
	<rect x="81.6" y="156.3" width="15.6" height="15.6"/>
	<rect x="97.3" y="171.9" width="15.6" height="15.6"/>
	<rect x="112.9" y="187.5" width="15.6" height="15.6"/>
	<rect x="112.9" y="171.9" width="15.6" height="15.6"/>
	<rect x="112.9" y="156.3" width="15.6" height="15.6"/>
	<rect x="112.9" y="140.7" width="15.6" height="15.6"/>
	<rect x="112.9" y="125.1" width="15.6" height="15.6"/>
	<rect x="112.9" y="109.5" width="15.6" height="15.6"/>
	<rect x="112.9" y="93.9" width="15.6" height="15.6"/>
	<rect x="112.9" y="78.2" width="15.6" height="15.6"/>
	<rect x="112.9" y="62.6" width="15.6" height="15.6"/>
	<rect x="112.9" y="47" width="15.6" height="15.6"/>
	<rect x="112.9" y="31.4" width="15.6" height="15.6"/>
	<rect x="159.7" y="156.3" width="15.6" height="15.6"/>
	<rect x="159.7" y="140.7" width="15.6" height="15.6"/>
	<rect x="159.7" y="125.1" width="15.6" height="15.6"/>
	<rect x="159.7" y="109.5" width="15.6" height="15.6"/>
	<rect x="159.7" y="93.9" width="15.6" height="15.6"/>
	<rect x="175.3" y="93.9" width="15.6" height="15.6"/>
	<rect x="191" y="93.9" width="15.6" height="15.6"/>
	<rect x="206.6" y="109.5" width="15.6" height="15.6"/>
	<rect x="222.2" y="109.5" width="15.6" height="15.6"/>
	<rect x="237.8" y="109.5" width="15.6" height="15.6"/>
	<rect x="253.4" y="125.1" width="15.6" height="15.6"/>
	<rect x="253.4" y="140.7" width="15.6" height="15.6"/>
	<rect x="253.4" y="156.3" width="15.6" height="15.6"/>
	<rect x="253.4" y="171.9" width="15.6" height="15.6"/>
	<rect x="269" y="125.1" width="15.6" height="15.6"/>
	<rect x="284.6" y="140.7" width="15.6" height="15.6"/>
	<rect x="300.3" y="156.3" width="15.6" height="15.6"/>
	<rect x="300.3" y="171.9" width="15.6" height="15.6"/>
	<rect x="300.3" y="187.5" width="15.6" height="15.6"/>
	<rect x="300.3" y="203.2" width="15.6" height="15.6"/>
	<rect x="300.3" y="218.8" width="15.6" height="15.6"/>
	<rect x="300.3" y="234.4" width="15.6" height="15.6"/>
	<rect x="300.3" y="250" width="15.6" height="15.6"/>
	<rect x="284.6" y="265.6" width="15.6" height="15.6"/>
	<rect x="284.6" y="281.2" width="15.6" height="15.6"/>
	<rect x="284.6" y="296.8" width="15.6" height="15.6"/>
	<rect x="269" y="312.5" width="15.6" height="15.6"/>
	<rect x="269" y="328.1" width="15.6" height="15.6"/>
	<rect x="269" y="343.7" width="15.6" height="15.6"/>
	<rect x="206.6" y="125.1" width="15.6" height="15.6"/>
	<rect x="206.6" y="140.7" width="15.6" height="15.6"/>
	<rect x="206.6" y="156.3" width="15.6" height="15.6"/>
	<rect x="159.7" y="78.2" width="15.6" height="15.6"/>
	<rect x="159.7" y="62.6" width="15.6" height="15.6"/>
	<rect x="159.7" y="47" width="15.6" height="15.6"/>
	<rect x="159.7" y="31.4" width="15.6" height="15.6"/>
	<rect x="128.5" y="15.8" width="15.6" height="15.6"/>
	<rect x="144.1" y="15.8" width="15.6" height="15.6"/>
</g>
<g>
	<rect x="139.8" y="692.6" width="15.6" height="15.6"/>
	<rect x="124.2" y="677" width="15.6" height="15.6"/>
	<rect x="124.2" y="661.4" width="15.6" height="15.6"/>
	<rect x="108.6" y="645.8" width="15.6" height="15.6"/>
	<rect x="108.6" y="630.2" width="15.6" height="15.6"/>
	<rect x="93" y="614.5" width="15.6" height="15.6"/>
	<rect x="93" y="598.9" width="15.6" height="15.6"/>
	<rect x="77.4" y="583.3" width="15.6" height="15.6"/>
	<rect x="61.8" y="567.7" width="15.6" height="15.6"/>
	<rect x="61.8" y="552.1" width="15.6" height="15.6"/>
	<rect x="61.8" y="536.5" width="15.6" height="15.6"/>
	<rect x="61.8" y="520.9" width="15.6" height="15.6"/>
	<rect x="61.8" y="505.2" width="15.6" height="15.6"/>
	<rect x="77.4" y="505.2" width="15.6" height="15.6"/>
	<rect x="93" y="505.2" width="15.6" height="15.6"/>
	<rect x="108.6" y="520.9" width="15.6" height="15.6"/>
	<rect x="124.2" y="567.7" width="15.6" height="15.6"/>
	<rect x="124.2" y="552.1" width="15.6" height="15.6"/>
	<rect x="124.2" y="536.5" width="15.6" height="15.6"/>
	<rect x="124.2" y="520.9" width="15.6" height="15.6"/>
	<rect x="124.2" y="505.2" width="15.6" height="15.6"/>
	<rect x="124.2" y="489.6" width="15.6" height="15.6"/>
	<rect x="124.2" y="474" width="15.6" height="15.6"/>
	<rect x="124.2" y="458.4" width="15.6" height="15.6"/>
	<rect x="124.2" y="442.8" width="15.6" height="15.6"/>
	<rect x="124.2" y="427.2" width="15.6" height="15.6"/>
	<rect x="124.2" y="411.6" width="15.6" height="15.6"/>
	<rect x="171.1" y="536.5" width="15.6" height="15.6"/>
	<rect x="171.1" y="520.9" width="15.6" height="15.6"/>
	<rect x="171.1" y="505.2" width="15.6" height="15.6"/>
	<rect x="171.1" y="489.6" width="15.6" height="15.6"/>
	<rect x="171.1" y="474" width="15.6" height="15.6"/>
	<rect x="186.7" y="474" width="15.6" height="15.6"/>
	<rect x="202.3" y="474" width="15.6" height="15.6"/>
	<rect x="217.9" y="489.6" width="15.6" height="15.6"/>
	<rect x="233.5" y="489.6" width="15.6" height="15.6"/>
	<rect x="249.1" y="489.6" width="15.6" height="15.6"/>
	<rect x="264.8" y="505.2" width="15.6" height="15.6"/>
	<rect x="264.8" y="520.9" width="15.6" height="15.6"/>
	<rect x="264.8" y="536.5" width="15.6" height="15.6"/>
	<rect x="264.8" y="552.1" width="15.6" height="15.6"/>
	<rect x="280.4" y="505.2" width="15.6" height="15.6"/>
	<rect x="296" y="505.2" width="15.6" height="15.6"/>
	<rect x="311.6" y="536.5" width="15.6" height="15.6"/>
	<rect x="311.6" y="520.9" width="15.6" height="15.6"/>
	<rect x="311.6" y="552.1" width="15.6" height="15.6"/>
	<rect x="311.6" y="567.7" width="15.6" height="15.6"/>
	<rect x="311.6" y="583.3" width="15.6" height="15.6"/>
	<rect x="311.6" y="598.9" width="15.6" height="15.6"/>
	<rect x="311.6" y="614.5" width="15.6" height="15.6"/>
	<rect x="311.6" y="630.2" width="15.6" height="15.6"/>
	<rect x="296" y="645.8" width="15.6" height="15.6"/>
	<rect x="296" y="661.4" width="15.6" height="15.6"/>
	<rect x="296" y="677" width="15.6" height="15.6"/>
	<rect x="280.4" y="692.6" width="15.6" height="15.6"/>
	<rect x="139.8" y="708.2" width="15.6" height="15.6"/>
	<rect x="155.5" y="708.2" width="15.6" height="15.6"/>
	<rect x="171.1" y="708.2" width="15.6" height="15.6"/>
	<rect x="186.7" y="708.2" width="15.6" height="15.6"/>
	<rect x="202.3" y="708.2" width="15.6" height="15.6"/>
	<rect x="217.9" y="708.2" width="15.6" height="15.6"/>
	<rect x="233.5" y="708.2" width="15.6" height="15.6"/>
	<rect x="249.1" y="708.2" width="15.6" height="15.6"/>
	<rect x="264.8" y="708.2" width="15.6" height="15.6"/>
	<rect x="280.4" y="708.2" width="15.6" height="15.6"/>
	<rect x="217.9" y="505.2" width="15.6" height="15.6"/>
	<rect x="217.9" y="520.9" width="15.6" height="15.6"/>
	<rect x="217.9" y="536.5" width="15.6" height="15.6"/>
	<rect x="171.1" y="552.1" width="15.6" height="15.6"/>
	<rect x="171.1" y="567.7" width="15.6" height="15.6"/>
	<rect x="171.1" y="583.3" width="15.6" height="15.6"/>
	<rect x="264.8" y="567.7" width="15.6" height="15.6"/>
	<rect x="264.8" y="583.3" width="15.6" height="15.6"/>
	<rect x="217.9" y="552.1" width="15.6" height="15.6"/>
	<rect x="217.9" y="567.7" width="15.6" height="15.6"/>
	<rect x="217.9" y="583.3" width="15.6" height="15.6"/>
	<rect x="171.1" y="458.4" width="15.6" height="15.6"/>
	<rect x="171.1" y="442.8" width="15.6" height="15.6"/>
	<rect x="171.1" y="427.2" width="15.6" height="15.6"/>
	<rect x="171.1" y="411.6" width="15.6" height="15.6"/>
	<rect x="124.2" y="395.9" width="15.6" height="15.6"/>
	<rect x="171.1" y="395.9" width="15.6" height="15.6"/>
	<rect x="124.2" y="380.3" width="15.6" height="15.6"/>
	<rect x="171.1" y="380.3" width="15.6" height="15.6"/>
	<rect x="139.8" y="380.3" width="15.6" height="15.6"/>
	<rect x="155.5" y="380.3" width="15.6" height="15.6"/>
</g>
<g>
	<rect x="484.6" y="343.7" width="15.6" height="15.6"/>
	<rect x="500.3" y="343.7" width="15.6" height="15.6"/>
	<rect x="515.9" y="343.7" width="15.6" height="15.6"/>
	<rect x="531.5" y="343.7" width="15.6" height="15.6"/>
	<rect x="547.1" y="343.7" width="15.6" height="15.6"/>
	<rect x="562.7" y="343.7" width="15.6" height="15.6"/>
	<rect x="578.3" y="343.7" width="15.6" height="15.6"/>
	<rect x="593.9" y="343.7" width="15.6" height="15.6"/>
	<rect x="609.6" y="343.7" width="15.6" height="15.6"/>
	<rect x="484.6" y="328.1" width="15.6" height="15.6"/>
	<rect x="484.6" y="312.5" width="15.6" height="15.6"/>
	<rect x="469" y="296.8" width="15.6" height="15.6"/>
	<rect x="469" y="281.2" width="15.6" height="15.6"/>
	<rect x="453.4" y="265.6" width="15.6" height="15.6"/>
	<rect x="453.4" y="250" width="15.6" height="15.6"/>
	<rect x="437.8" y="234.4" width="15.6" height="15.6"/>
	<rect x="437.8" y="218.8" width="15.6" height="15.6"/>
	<rect x="437.8" y="203.2" width="15.6" height="15.6"/>
	<rect x="437.8" y="187.5" width="15.6" height="15.6"/>
	<rect x="453.4" y="171.9" width="15.6" height="15.6"/>
	<rect x="469" y="187.5" width="15.6" height="15.6"/>
	<rect x="469" y="203.2" width="15.6" height="15.6"/>
	<rect x="469" y="218.8" width="15.6" height="15.6"/>
	<rect x="469" y="171.9" width="15.6" height="15.6"/>
	<rect x="469" y="156.3" width="15.6" height="15.6"/>
	<rect x="469" y="140.7" width="15.6" height="15.6"/>
	<rect x="469" y="125.1" width="15.6" height="15.6"/>
	<rect x="469" y="109.5" width="15.6" height="15.6"/>
	<rect x="469" y="93.9" width="15.6" height="15.6"/>
	<rect x="469" y="78.2" width="15.6" height="15.6"/>
	<rect x="469" y="62.6" width="15.6" height="15.6"/>
	<rect x="469" y="47" width="15.6" height="15.6"/>
	<rect x="469" y="31.4" width="15.6" height="15.6"/>
	<rect x="515.9" y="140.7" width="15.6" height="15.6"/>
	<rect x="515.9" y="125.1" width="15.6" height="15.6"/>
	<rect x="515.9" y="109.5" width="15.6" height="15.6"/>
	<rect x="515.9" y="93.9" width="15.6" height="15.6"/>
	<rect x="531.5" y="93.9" width="15.6" height="15.6"/>
	<rect x="547.1" y="93.9" width="15.6" height="15.6"/>
	<rect x="562.7" y="109.5" width="15.6" height="15.6"/>
	<rect x="578.3" y="109.5" width="15.6" height="15.6"/>
	<rect x="593.9" y="109.5" width="15.6" height="15.6"/>
	<rect x="609.6" y="125.1" width="15.6" height="15.6"/>
	<rect x="609.6" y="140.7" width="15.6" height="15.6"/>
	<rect x="609.6" y="156.3" width="15.6" height="15.6"/>
	<rect x="625.2" y="125.1" width="15.6" height="15.6"/>
	<rect x="640.8" y="140.7" width="15.6" height="15.6"/>
	<rect x="656.4" y="156.3" width="15.6" height="15.6"/>
	<rect x="656.4" y="171.9" width="15.6" height="15.6"/>
	<rect x="656.4" y="187.5" width="15.6" height="15.6"/>
	<rect x="656.4" y="203.2" width="15.6" height="15.6"/>
	<rect x="656.4" y="218.8" width="15.6" height="15.6"/>
	<rect x="656.4" y="234.4" width="15.6" height="15.6"/>
	<rect x="656.4" y="250" width="15.6" height="15.6"/>
	<rect x="640.8" y="265.6" width="15.6" height="15.6"/>
	<rect x="640.8" y="281.2" width="15.6" height="15.6"/>
	<rect x="640.8" y="296.8" width="15.6" height="15.6"/>
	<rect x="625.2" y="312.5" width="15.6" height="15.6"/>
	<rect x="625.2" y="328.1" width="15.6" height="15.6"/>
	<rect x="625.2" y="343.7" width="15.6" height="15.6"/>
	<rect x="562.7" y="125.1" width="15.6" height="15.6"/>
	<rect x="562.7" y="140.7" width="15.6" height="15.6"/>
	<rect x="515.9" y="78.2" width="15.6" height="15.6"/>
	<rect x="515.9" y="62.6" width="15.6" height="15.6"/>
	<rect x="515.9" y="47" width="15.6" height="15.6"/>
	<rect x="515.9" y="31.4" width="15.6" height="15.6"/>
	<rect x="484.6" y="15.8" width="15.6" height="15.6"/>
	<rect x="500.3" y="15.8" width="15.6" height="15.6"/>
</g>
<g>
	<rect x="870.4" y="692.6" width="15.6" height="15.6"/>
	<rect x="870.4" y="677" width="15.6" height="15.6"/>
	<rect x="979.7" y="692.6" width="15.6" height="15.6"/>
	<rect x="901.6" y="708.2" width="15.6" height="15.6"/>
	<rect x="886" y="708.2" width="15.6" height="15.6"/>
	<rect x="917.2" y="708.2" width="15.6" height="15.6"/>
	<rect x="932.8" y="708.2" width="15.6" height="15.6"/>
	<rect x="948.5" y="708.2" width="15.6" height="15.6"/>
	<rect x="964.1" y="708.2" width="15.6" height="15.6"/>
	<rect x="870.4" y="661.4" width="15.6" height="15.6"/>
	<rect x="854.8" y="645.8" width="15.6" height="15.6"/>
	<rect x="839.2" y="630.2" width="15.6" height="15.6"/>
	<rect x="823.5" y="614.5" width="15.6" height="15.6"/>
	<rect x="807.9" y="598.9" width="15.6" height="15.6"/>
	<rect x="807.9" y="583.3" width="15.6" height="15.6"/>
	<rect x="807.9" y="567.7" width="15.6" height="15.6"/>
	<rect x="807.9" y="552.1" width="15.6" height="15.6"/>
	<rect x="823.5" y="536.5" width="15.6" height="15.6"/>
	<rect x="839.2" y="552.1" width="15.6" height="15.6"/>
	<rect x="839.2" y="567.7" width="15.6" height="15.6"/>
	<rect x="839.2" y="583.3" width="15.6" height="15.6"/>
	<rect x="839.2" y="536.5" width="15.6" height="15.6"/>
	<rect x="839.2" y="520.9" width="15.6" height="15.6"/>
	<rect x="839.2" y="505.2" width="15.6" height="15.6"/>
	<rect x="839.2" y="489.6" width="15.6" height="15.6"/>
	<rect x="839.2" y="474" width="15.6" height="15.6"/>
	<rect x="839.2" y="458.4" width="15.6" height="15.6"/>
	<rect x="839.2" y="442.8" width="15.6" height="15.6"/>
	<rect x="839.2" y="427.2" width="15.6" height="15.6"/>
	<rect x="839.2" y="411.6" width="15.6" height="15.6"/>
	<rect x="839.2" y="395.9" width="15.6" height="15.6"/>
	<rect x="886" y="505.2" width="15.6" height="15.6"/>
	<rect x="886" y="489.6" width="15.6" height="15.6"/>
	<rect x="886" y="474" width="15.6" height="15.6"/>
	<rect x="886" y="458.4" width="15.6" height="15.6"/>
	<rect x="901.6" y="474" width="15.6" height="15.6"/>
	<rect x="917.2" y="474" width="15.6" height="15.6"/>
	<rect x="948.5" y="489.6" width="15.6" height="15.6"/>
	<rect x="964.1" y="489.6" width="15.6" height="15.6"/>
	<rect x="979.7" y="505.2" width="15.6" height="15.6"/>
	<rect x="979.7" y="520.9" width="15.6" height="15.6"/>
	<rect x="995.3" y="505.2" width="15.6" height="15.6"/>
	<rect x="1010.9" y="520.9" width="15.6" height="15.6"/>
	<rect x="1026.5" y="536.5" width="15.6" height="15.6"/>
	<rect x="1026.5" y="552.1" width="15.6" height="15.6"/>
	<rect x="1026.5" y="567.7" width="15.6" height="15.6"/>
	<rect x="1026.5" y="583.3" width="15.6" height="15.6"/>
	<rect x="1026.5" y="598.9" width="15.6" height="15.6"/>
	<rect x="1010.9" y="614.5" width="15.6" height="15.6"/>
	<rect x="1010.9" y="630.2" width="15.6" height="15.6"/>
	<rect x="995.3" y="645.8" width="15.6" height="15.6"/>
	<rect x="979.7" y="661.4" width="15.6" height="15.6"/>
	<rect x="979.7" y="677" width="15.6" height="15.6"/>
	<rect x="932.8" y="489.6" width="15.6" height="15.6"/>
	<rect x="932.8" y="505.2" width="15.6" height="15.6"/>
	<rect x="886" y="520.9" width="15.6" height="15.6"/>
	<rect x="932.8" y="520.9" width="15.6" height="15.6"/>
	<rect x="886" y="442.8" width="15.6" height="15.6"/>
	<rect x="886" y="427.2" width="15.6" height="15.6"/>
	<rect x="886" y="411.6" width="15.6" height="15.6"/>
	<rect x="886" y="395.9" width="15.6" height="15.6"/>
	<rect x="854.8" y="380.3" width="15.6" height="15.6"/>
	<rect x="870.4" y="380.3" width="15.6" height="15.6"/>
</g>
<g>
	<rect x="857.1" y="343.7" width="15.6" height="15.6"/>
	<rect x="872.7" y="343.7" width="15.6" height="15.6"/>
	<rect x="888.3" y="343.7" width="15.6" height="15.6"/>
	<rect x="903.9" y="343.7" width="15.6" height="15.6"/>
	<rect x="919.5" y="343.7" width="15.6" height="15.6"/>
	<rect x="935.2" y="343.7" width="15.6" height="15.6"/>
	<rect x="950.8" y="343.7" width="15.6" height="15.6"/>
	<rect x="966.4" y="343.7" width="15.6" height="15.6"/>
	<rect x="982" y="343.7" width="15.6" height="15.6"/>
	<rect x="857.1" y="328.1" width="15.6" height="15.6"/>
	<rect x="857.1" y="312.5" width="15.6" height="15.6"/>
	<rect x="841.5" y="296.8" width="15.6" height="15.6"/>
	<rect x="841.5" y="281.2" width="15.6" height="15.6"/>
	<rect x="825.9" y="265.6" width="15.6" height="15.6"/>
	<rect x="825.9" y="250" width="15.6" height="15.6"/>
	<rect x="889.2" y="265.6" width="15.6" height="15.6"/>
	<rect x="889.2" y="250" width="15.6" height="15.6"/>
	<rect x="889.2" y="234.5" width="15.6" height="15.6"/>
	<rect x="935.2" y="265.6" width="15.6" height="15.6"/>
	<rect x="935.2" y="250" width="15.6" height="15.6"/>
	<rect x="935.2" y="234.5" width="15.6" height="15.6"/>
	<rect x="981.1" y="265.6" width="15.6" height="15.6"/>
	<rect x="981.1" y="250" width="15.6" height="15.6"/>
	<rect x="981.1" y="234.5" width="15.6" height="15.6"/>
	<rect x="779" y="187.5" width="15.6" height="15.6"/>
	<rect x="779" y="171.9" width="15.6" height="15.6"/>
	<rect x="810.2" y="234.4" width="15.6" height="15.6"/>
	<rect x="794.6" y="218.8" width="15.6" height="15.6"/>
	<rect x="779" y="203.2" width="15.6" height="15.6"/>
	<rect x="779" y="187.5" width="15.6" height="15.6"/>
	<rect x="779" y="171.9" width="15.6" height="15.6"/>
	<rect x="794.6" y="171.9" width="15.6" height="15.6"/>
	<rect x="810.2" y="171.9" width="15.6" height="15.6"/>
	<rect x="825.9" y="187.5" width="15.6" height="15.6"/>
	<rect x="841.5" y="187.5" width="15.6" height="15.6"/>
	<rect x="841.5" y="203.2" width="15.6" height="15.6"/>
	<rect x="841.5" y="171.9" width="15.6" height="15.6"/>
	<rect x="841.5" y="156.3" width="15.6" height="15.6"/>
	<rect x="841.5" y="140.7" width="15.6" height="15.6"/>
	<rect x="841.5" y="125.1" width="15.6" height="15.6"/>
	<rect x="841.5" y="109.5" width="15.6" height="15.6"/>
	<rect x="841.5" y="93.9" width="15.6" height="15.6"/>
	<rect x="841.5" y="78.2" width="15.6" height="15.6"/>
	<rect x="841.5" y="62.6" width="15.6" height="15.6"/>
	<rect x="888.3" y="171.9" width="15.6" height="15.6"/>
	<rect x="888.3" y="156.3" width="15.6" height="15.6"/>
	<rect x="888.3" y="140.7" width="15.6" height="15.6"/>
	<rect x="903.9" y="125.1" width="15.6" height="15.6"/>
	<rect x="919.5" y="125.1" width="15.6" height="15.6"/>
	<rect x="935.2" y="125.1" width="15.6" height="15.6"/>
	<rect x="950.8" y="125.1" width="15.6" height="15.6"/>
	<rect x="966.4" y="125.1" width="15.6" height="15.6"/>
	<rect x="982" y="140.7" width="15.6" height="15.6"/>
	<rect x="982" y="156.3" width="15.6" height="15.6"/>
	<rect x="982" y="171.9" width="15.6" height="15.6"/>
	<rect x="997.6" y="140.7" width="15.6" height="15.6"/>
	<rect x="1013.2" y="156.3" width="15.6" height="15.6"/>
	<rect x="1028.8" y="171.9" width="15.6" height="15.6"/>
	<rect x="1028.8" y="187.5" width="15.6" height="15.6"/>
	<rect x="1028.8" y="203.2" width="15.6" height="15.6"/>
	<rect x="1028.8" y="218.8" width="15.6" height="15.6"/>
	<rect x="1028.8" y="234.4" width="15.6" height="15.6"/>
	<rect x="1028.8" y="250" width="15.6" height="15.6"/>
	<rect x="1013.2" y="265.6" width="15.6" height="15.6"/>
	<rect x="1013.2" y="281.2" width="15.6" height="15.6"/>
	<rect x="1013.2" y="296.8" width="15.6" height="15.6"/>
	<rect x="997.6" y="312.5" width="15.6" height="15.6"/>
	<rect x="997.6" y="328.1" width="15.6" height="15.6"/>
	<rect x="997.6" y="343.7" width="15.6" height="15.6"/>
	<rect x="935.2" y="140.7" width="15.6" height="15.6"/>
	<rect x="935.2" y="156.3" width="15.6" height="15.6"/>
	<rect x="935.2" y="171.9" width="15.6" height="15.6"/>
	<rect x="888.3" y="187.5" width="15.6" height="15.6"/>
	<rect x="982" y="187.5" width="15.6" height="15.6"/>
	<rect x="935.2" y="187.5" width="15.6" height="15.6"/>
	<rect x="888.3" y="125.1" width="15.6" height="15.6"/>
	<rect x="888.3" y="93.9" width="15.6" height="15.6"/>
	<rect x="888.3" y="109.5" width="15.6" height="15.6"/>
	<rect x="888.3" y="78.2" width="15.6" height="15.6"/>
	<rect x="888.3" y="62.6" width="15.6" height="15.6"/>
	<rect x="857.1" y="47" width="15.6" height="15.6"/>
	<rect x="872.7" y="47" width="15.6" height="15.6"/>
</g>
<g>
	<rect x="498.3" y="708.2" width="15.6" height="15.6"/>
	<rect x="513.9" y="708.2" width="15.6" height="15.6"/>
	<rect x="545.2" y="708.2" width="15.6" height="15.6"/>
	<rect x="529.5" y="708.2" width="15.6" height="15.6"/>
	<rect x="560.8" y="708.2" width="15.6" height="15.6"/>
	<rect x="576.4" y="708.2" width="15.6" height="15.6"/>
	<rect x="592" y="708.2" width="15.6" height="15.6"/>
	<rect x="607.6" y="708.2" width="15.6" height="15.6"/>
	<rect x="623.2" y="692.6" width="15.6" height="15.6"/>
	<rect x="638.8" y="708.2" width="15.6" height="15.6"/>
	<rect x="498.3" y="692.6" width="15.6" height="15.6"/>
	<rect x="498.3" y="677" width="15.6" height="15.6"/>
	<rect x="482.7" y="661.4" width="15.6" height="15.6"/>
	<rect x="482.7" y="645.8" width="15.6" height="15.6"/>
	<rect x="467.1" y="630.2" width="15.6" height="15.6"/>
	<rect x="467.1" y="614.5" width="15.6" height="15.6"/>
	<rect x="451.5" y="598.9" width="15.6" height="15.6"/>
	<rect x="451.5" y="583.3" width="15.6" height="15.6"/>
	<rect x="451.5" y="567.7" width="15.6" height="15.6"/>
	<rect x="467.1" y="552.1" width="15.6" height="15.6"/>
	<rect x="498.3" y="552.1" width="15.6" height="15.6"/>
	<rect x="482.7" y="552.1" width="15.6" height="15.6"/>
	<rect x="498.3" y="567.7" width="15.6" height="15.6"/>
	<rect x="498.3" y="583.3" width="15.6" height="15.6"/>
	<rect x="498.3" y="536.5" width="15.6" height="15.6"/>
	<rect x="498.3" y="520.9" width="15.6" height="15.6"/>
	<rect x="498.3" y="505.2" width="15.6" height="15.6"/>
	<rect x="498.3" y="489.6" width="15.6" height="15.6"/>
	<rect x="498.3" y="474" width="15.6" height="15.6"/>
	<rect x="498.3" y="458.4" width="15.6" height="15.6"/>
	<rect x="498.3" y="442.8" width="15.6" height="15.6"/>
	<rect x="498.3" y="427.2" width="15.6" height="15.6"/>
	<rect x="498.3" y="411.6" width="15.6" height="15.6"/>
	<rect x="498.3" y="395.9" width="15.6" height="15.6"/>
	<rect x="545.2" y="536.5" width="15.6" height="15.6"/>
	<rect x="545.2" y="520.9" width="15.6" height="15.6"/>
	<rect x="545.2" y="505.2" width="15.6" height="15.6"/>
	<rect x="545.2" y="489.6" width="15.6" height="15.6"/>
	<rect x="545.2" y="458.4" width="15.6" height="15.6"/>
	<rect x="545.2" y="474" width="15.6" height="15.6"/>
	<rect x="560.8" y="489.6" width="15.6" height="15.6"/>
	<rect x="576.4" y="489.6" width="15.6" height="15.6"/>
	<rect x="607.6" y="489.6" width="15.6" height="15.6"/>
	<rect x="623.2" y="489.6" width="15.6" height="15.6"/>
	<rect x="638.8" y="489.6" width="15.6" height="15.6"/>
	<rect x="638.8" y="505.2" width="15.6" height="15.6"/>
	<rect x="638.8" y="520.9" width="15.6" height="15.6"/>
	<rect x="638.8" y="536.5" width="15.6" height="15.6"/>
	<rect x="654.5" y="505.2" width="15.6" height="15.6"/>
	<rect x="670.1" y="505.2" width="15.6" height="15.6"/>
	<rect x="685.7" y="520.9" width="15.6" height="15.6"/>
	<rect x="685.7" y="536.5" width="15.6" height="15.6"/>
	<rect x="685.7" y="552.1" width="15.6" height="15.6"/>
	<rect x="685.7" y="567.7" width="15.6" height="15.6"/>
	<rect x="685.7" y="583.3" width="15.6" height="15.6"/>
	<rect x="685.7" y="598.9" width="15.6" height="15.6"/>
	<rect x="685.7" y="614.5" width="15.6" height="15.6"/>
	<rect x="670.1" y="630.2" width="15.6" height="15.6"/>
	<rect x="670.1" y="645.8" width="15.6" height="15.6"/>
	<rect x="670.1" y="661.4" width="15.6" height="15.6"/>
	<rect x="638.8" y="614.5" width="15.6" height="15.6"/>
	<rect x="638.8" y="598.9" width="15.6" height="15.6"/>
	<rect x="638.8" y="630.2" width="15.6" height="15.6"/>
	<rect x="638.8" y="645.8" width="15.6" height="15.6"/>
	<rect x="607.6" y="614.5" width="15.6" height="15.6"/>
	<rect x="607.6" y="598.9" width="15.6" height="15.6"/>
	<rect x="607.6" y="630.2" width="15.6" height="15.6"/>
	<rect x="607.6" y="645.8" width="15.6" height="15.6"/>
	<rect x="576.4" y="614.5" width="15.6" height="15.6"/>
	<rect x="576.4" y="598.9" width="15.6" height="15.6"/>
	<rect x="576.4" y="630.2" width="15.6" height="15.6"/>
	<rect x="576.4" y="645.8" width="15.6" height="15.6"/>
	<rect x="545.2" y="614.5" width="15.6" height="15.6"/>
	<rect x="545.2" y="598.9" width="15.6" height="15.6"/>
	<rect x="545.2" y="630.2" width="15.6" height="15.6"/>
	<rect x="545.2" y="645.8" width="15.6" height="15.6"/>
	<rect x="638.8" y="661.4" width="15.6" height="15.6"/>
	<rect x="607.6" y="661.4" width="15.6" height="15.6"/>
	<rect x="576.4" y="661.4" width="15.6" height="15.6"/>
	<rect x="545.2" y="661.4" width="15.6" height="15.6"/>
	<rect x="654.5" y="677" width="15.6" height="15.6"/>
	<rect x="654.5" y="692.6" width="15.6" height="15.6"/>
	<rect x="654.5" y="708.2" width="15.6" height="15.6"/>
	<rect x="592" y="505.2" width="15.6" height="15.6"/>
	<rect x="592" y="520.9" width="15.6" height="15.6"/>
	<rect x="592" y="536.5" width="15.6" height="15.6"/>
	<rect x="545.2" y="442.8" width="15.6" height="15.6"/>
	<rect x="545.2" y="427.2" width="15.6" height="15.6"/>
	<rect x="545.2" y="411.6" width="15.6" height="15.6"/>
	<rect x="545.2" y="395.9" width="15.6" height="15.6"/>
	<rect x="513.9" y="380.3" width="15.6" height="15.6"/>
	<rect x="529.5" y="380.3" width="15.6" height="15.6"/>
</g>
<path d="M565.5,742.6c0.5,0,1,0.5,1,0.5l-8.9,19c-1,0-3.3,0.1-3.9,0.1c-0.5,0-1-0.5-1-0.5l-3-19c1.8,0,4.2-0.1,4.8-0.1
	c0.5,0,1,0.5,1,0.5l0.9,9.3c0.1,0.8,0.1,1.9,0.1,3.1c0.3-1.3,0.6-2.5,1-3.3l3.7-9.4C562.9,742.8,564.9,742.6,565.5,742.6
	L565.5,742.6z M574.7,752c0,2.1-1.2,3.4-4,4l-3,0.6c0.2,1.3,1.1,1.9,2.4,1.9c1.7,0,2.8-1.3,2.8-1.3s0.8,0.5,0.8,1.4
	c0,1.7-2.6,3.6-5.7,3.6c-3.1,0-5.2-2-5.2-5.3c0-3.8,2.7-9.1,7.6-9.1C573.1,748,574.7,749.6,574.7,752L574.7,752z M569.6,754
	c0.6-0.2,0.8-0.7,0.8-1.3c0-0.6-0.2-1.4-0.9-1.4c-1.2,0-1.7,1.9-1.9,3.4L569.6,754z M582.9,748c2.4,0,4.3,1.3,4.3,3
	c0,2.1-2.6,2.9-2.6,2.9s-0.7-2.3-2.5-2.3c-1.2,0-1.8,1.2-1.8,3.7c0,2.3,0.6,3.3,2.1,3.3c1.5,0,2.5-1,2.5-1s0.9,0.5,0.9,1.4
	c0,1.7-2.5,3.4-5.5,3.4c-3.2,0-5.1-2-5.1-5.3C575.1,753.3,577.9,748,582.9,748L582.9,748z M594.6,745c0.6,0,1,0.5,1,0.5l-0.5,2.9
	h3.1l-0.7,2.2c-0.2,0.7-0.6,1.1-1.3,1.1h-1.6l-0.9,5.7c-0.1,0.9,0.1,1.3,0.7,1.3c0.6,0,1.1-0.3,1.1-0.3s0.9,0.5,0.9,1.4
	c0,1.4-2,2.8-4.5,2.8c-2.6,0-3.7-1.6-3.3-4.5l1-6.3H588l0.7-2.3c0.2-0.6,0.7-1,1.3-1h0.8l1-2.7C593,745.3,594.1,745,594.6,745
	L594.6,745z M609.5,752c0,2.1-1.2,3.4-4,4l-3,0.6c0.2,1.3,1.1,1.9,2.4,1.9c1.7,0,2.8-1.3,2.8-1.3s0.9,0.5,0.9,1.4
	c0,1.7-2.6,3.6-5.7,3.6c-3.1,0-5.2-2-5.2-5.3c0-3.8,2.7-9.1,7.6-9.1C607.9,748,609.5,749.6,609.5,752L609.5,752z M604.4,754
	c0.6-0.2,0.8-0.7,0.8-1.3c0-0.6-0.2-1.4-0.9-1.4c-1.2,0-1.7,1.9-1.9,3.4L604.4,754z M621.9,752c0,2.1-1.2,3.4-4,4l-3,0.6
	c0.2,1.3,1.1,1.9,2.4,1.9c1.7,0,2.8-1.3,2.8-1.3s0.9,0.5,0.9,1.4c0,1.7-2.6,3.6-5.7,3.6c-3.1,0-5.2-2-5.2-5.3c0-3.8,2.7-9.1,7.6-9.1
	C620.2,748,621.9,749.6,621.9,752L621.9,752z M616.8,754c0.6-0.2,0.8-0.7,0.8-1.3c0-0.6-0.2-1.4-0.9-1.4c-1.2,0-1.7,1.9-1.9,3.4
	L616.8,754z M632,757.2c0,0,1,1,1,2.5c0,2.1-1.8,2.7-3.3,2.7c-2,0-3.4-0.9-4.9-1.4c-0.4,0.5-0.8,1-1.2,1.4c0,0-2.2-0.1-2.2-1.6
	c0-1.8,3.1-5,6.4-8.5c-0.4-0.1-0.7-0.1-1.1-0.1c-1.9,0-2.6,0.9-2.6,0.9s-1-1.1-0.9-2.5c0.1-2,2-2.5,3.5-2.5c1.6,0,2.7,0.6,3.9,1.1
	l0.9-1.1c0,0,2.2,0.1,2.2,1.6c0,1.8-3,4.9-6.2,8.3c0.7,0.2,1.3,0.3,1.9,0.3C631.2,758.3,632,757.2,632,757.2L632,757.2z
	 M646.3,761.2c-0.8,4.8-4.1,7.3-8.3,7.3c-2.7,0-4.7-1.4-4.7-3c0-1.1,0.9-1.6,0.9-1.6s0.9,0.8,2.7,0.8c1.7,0,4-0.7,4.4-3.3l0.3-2
	c-1.1,1.6-2.6,3-4.5,3c-2.1,0-3.1-1.7-2.5-5.3l0.6-3.8c0.4-2.3,0.5-4.3,0.5-4.3c1.5-0.3,3.5-1,4.2-1c0.5,0,1,0.5,1,0.5l-0.8,4.8
	l-0.7,4.4c-0.1,0.4,0,0.6,0.4,0.6c1.8,0,2.8-5.1,2.8-5.1c0.4-2.3,0.5-4.3,0.5-4.3c1.5-0.3,3.5-1,4.2-1c0.5,0,1,0.5,1,0.5l-0.8,4.8
	L646.3,761.2z M441.6,748.8h4.8c1.1,0,1.9,0.1,2.5,0.2c0.8,0.2,1.4,0.6,1.9,1.2c0.5,0.6,0.9,1.3,1.2,2.1c0.3,0.8,0.4,1.8,0.4,3
	c0,1.1-0.1,2-0.4,2.7c-0.3,0.9-0.8,1.7-1.4,2.3c-0.5,0.4-1.1,0.8-1.8,1c-0.6,0.2-1.3,0.3-2.3,0.3h-4.9V748.8z M444.2,751v8.5h1.9
	c0.7,0,1.3,0,1.6-0.1c0.4-0.1,0.8-0.3,1.1-0.5c0.3-0.3,0.5-0.7,0.7-1.2c0.2-0.6,0.3-1.4,0.3-2.4c0-1-0.1-1.8-0.3-2.3
	s-0.4-0.9-0.7-1.2c-0.3-0.3-0.7-0.5-1.2-0.6c-0.4-0.1-1.1-0.1-2.1-0.1H444.2z M459.6,758.7l2.5,0.4c-0.3,0.9-0.8,1.6-1.5,2.1
	c-0.7,0.5-1.5,0.7-2.6,0.7c-1.6,0-2.8-0.5-3.6-1.6c-0.6-0.8-0.9-1.9-0.9-3.2c0-1.5,0.4-2.8,1.2-3.6c0.8-0.9,1.8-1.3,3.1-1.3
	c1.4,0,2.5,0.5,3.3,1.4c0.8,0.9,1.2,2.3,1.2,4.2H456c0,0.7,0.2,1.3,0.6,1.7c0.4,0.4,0.9,0.6,1.4,0.6c0.4,0,0.7-0.1,1-0.3
	C459.3,759.5,459.5,759.2,459.6,758.7z M459.7,756.2c0-0.7-0.2-1.3-0.6-1.6c-0.4-0.4-0.8-0.6-1.3-0.6c-0.5,0-1,0.2-1.3,0.6
	c-0.4,0.4-0.5,0.9-0.5,1.6H459.7z M463,759l2.5-0.4c0.1,0.5,0.3,0.8,0.6,1.1c0.3,0.2,0.8,0.4,1.4,0.4c0.6,0,1.1-0.1,1.4-0.4
	c0.2-0.2,0.3-0.4,0.3-0.7c0-0.2-0.1-0.3-0.2-0.5c-0.1-0.1-0.4-0.2-0.8-0.3c-2-0.4-3.3-0.8-3.8-1.2c-0.7-0.5-1.1-1.2-1.1-2.1
	c0-0.8,0.3-1.5,1-2c0.6-0.6,1.6-0.8,3-0.8c1.3,0,2.2,0.2,2.8,0.6c0.6,0.4,1,1,1.3,1.8l-2.3,0.4c-0.1-0.4-0.3-0.6-0.6-0.8
	c-0.3-0.2-0.7-0.3-1.2-0.3c-0.7,0-1.1,0.1-1.4,0.3c-0.2,0.1-0.3,0.3-0.3,0.5c0,0.2,0.1,0.3,0.2,0.4c0.2,0.2,1,0.4,2.3,0.7
	c1.3,0.3,2.2,0.7,2.8,1.1c0.5,0.4,0.8,1.1,0.8,1.8c0,0.9-0.4,1.6-1.1,2.2c-0.7,0.6-1.8,0.9-3.2,0.9c-1.3,0-2.3-0.3-3-0.8
	C463.7,760.6,463.2,759.9,463,759z M473.5,751.1v-2.3h2.5v2.3H473.5z M473.5,761.7v-9.3h2.5v9.3H473.5z M477.9,762.3l2.8,0.3
	c0,0.3,0.2,0.6,0.3,0.7c0.2,0.2,0.6,0.3,1.1,0.3c0.6,0,1.1-0.1,1.5-0.3c0.2-0.1,0.4-0.3,0.5-0.6c0.1-0.2,0.1-0.6,0.1-1.1v-1.4
	c-0.7,1-1.7,1.5-2.8,1.5c-1.3,0-2.2-0.5-3-1.6c-0.6-0.8-0.9-1.9-0.9-3.1c0-1.6,0.4-2.8,1.1-3.6c0.8-0.8,1.7-1.2,2.8-1.2
	c1.2,0,2.1,0.5,2.9,1.5v-1.3h2.3v8.4c0,1.1-0.1,1.9-0.3,2.5c-0.2,0.5-0.4,1-0.8,1.3c-0.3,0.3-0.8,0.6-1.3,0.7
	c-0.5,0.2-1.2,0.3-2.1,0.3c-1.6,0-2.7-0.3-3.4-0.8c-0.7-0.5-1-1.2-1-2.1C477.9,762.5,477.9,762.4,477.9,762.3z M480.1,756.8
	c0,1,0.2,1.7,0.6,2.2c0.4,0.5,0.9,0.7,1.4,0.7c0.6,0,1.1-0.2,1.5-0.7c0.4-0.5,0.6-1.2,0.6-2.1c0-1-0.2-1.7-0.6-2.2
	c-0.4-0.5-0.9-0.7-1.5-0.7c-0.6,0-1.1,0.2-1.5,0.7C480.3,755.2,480.1,755.9,480.1,756.8z M497.2,761.7h-2.5v-4.8c0-1-0.1-1.7-0.2-2
	c-0.1-0.3-0.3-0.5-0.5-0.7c-0.2-0.2-0.5-0.2-0.9-0.2c-0.4,0-0.8,0.1-1.2,0.4c-0.3,0.2-0.6,0.5-0.7,0.9c-0.1,0.4-0.2,1.1-0.2,2.1v4.2
	h-2.5v-9.3h2.3v1.4c0.8-1.1,1.8-1.6,3.1-1.6c0.5,0,1,0.1,1.5,0.3c0.5,0.2,0.8,0.4,1,0.8c0.2,0.3,0.4,0.7,0.5,1
	c0.1,0.4,0.1,0.9,0.1,1.7V761.7z M504.8,758.7l2.5,0.4c-0.3,0.9-0.8,1.6-1.5,2.1c-0.7,0.5-1.5,0.7-2.6,0.7c-1.6,0-2.8-0.5-3.6-1.6
	c-0.6-0.8-0.9-1.9-0.9-3.2c0-1.5,0.4-2.8,1.2-3.6c0.8-0.9,1.8-1.3,3.1-1.3c1.4,0,2.5,0.5,3.3,1.4c0.8,0.9,1.2,2.3,1.2,4.2h-6.2
	c0,0.7,0.2,1.3,0.6,1.7c0.4,0.4,0.9,0.6,1.4,0.6c0.4,0,0.7-0.1,1-0.3C504.5,759.5,504.7,759.2,504.8,758.7z M504.9,756.2
	c0-0.7-0.2-1.3-0.6-1.6c-0.4-0.4-0.8-0.6-1.3-0.6c-0.5,0-1,0.2-1.3,0.6c-0.4,0.4-0.5,0.9-0.5,1.6H504.9z M517.6,761.7h-2.3v-1.4
	c-0.4,0.5-0.8,0.9-1.3,1.2c-0.5,0.3-1,0.4-1.6,0.4c-1.1,0-2-0.4-2.8-1.3c-0.8-0.9-1.1-2.1-1.1-3.6c0-1.6,0.4-2.8,1.1-3.6
	c0.7-0.8,1.7-1.2,2.8-1.2c1,0,1.9,0.4,2.7,1.3v-4.6h2.5V761.7z M511,756.8c0,1,0.1,1.7,0.4,2.2c0.4,0.6,1,1,1.7,1
	c0.6,0,1.1-0.2,1.5-0.7c0.4-0.5,0.6-1.2,0.6-2.2c0-1.1-0.2-1.8-0.6-2.3c-0.4-0.5-0.9-0.7-1.5-0.7c-0.6,0-1.1,0.2-1.5,0.7
	C511.2,755.2,511,755.9,511,756.8z M524.2,761.7v-12.9h2.5v4.6c0.8-0.9,1.7-1.3,2.7-1.3c1.1,0,2.1,0.4,2.8,1.2
	c0.7,0.8,1.1,2,1.1,3.5c0,1.6-0.4,2.8-1.1,3.7c-0.8,0.9-1.7,1.3-2.8,1.3c-0.5,0-1.1-0.1-1.6-0.4c-0.5-0.3-1-0.7-1.3-1.2v1.4H524.2z
	 M526.7,756.8c0,1,0.2,1.7,0.5,2.1c0.4,0.7,1,1,1.7,1c0.5,0,1-0.2,1.4-0.7c0.4-0.5,0.6-1.2,0.6-2.2c0-1.1-0.2-1.8-0.6-2.3
	c-0.4-0.5-0.9-0.7-1.5-0.7c-0.6,0-1.1,0.2-1.5,0.7C526.9,755.2,526.7,755.9,526.7,756.8z M533.8,752.4h2.6l2.2,6.6l2.2-6.6h2.6
	l-3.3,9l-0.6,1.6c-0.2,0.5-0.4,1-0.6,1.2c-0.2,0.3-0.4,0.5-0.7,0.7c-0.3,0.2-0.6,0.3-0.9,0.4c-0.4,0.1-0.8,0.1-1.3,0.1
	c-0.5,0-0.9,0-1.4-0.1l-0.2-1.9c0.4,0.1,0.7,0.1,1,0.1c0.6,0,1-0.2,1.3-0.5c0.3-0.3,0.5-0.8,0.6-1.3L533.8,752.4z"/>
</svg>
